<svg id="visual" viewBox="0 0 960 540" width="960" height="540" xmlns="http://www.w3.org/2000/svg" xmlns:xlink="http://www.w3.org/1999/xlink" version="1.1"><g stroke-width="1" stroke-linejoin="bevel"><path d="M511.3 251L502.3 206L446.7 251Z" fill="#081a28" stroke="#081a28"></path><path d="M502.3 206L409.7 211L446.7 251Z" fill="#297ea6" stroke="#297ea6"></path><path d="M616 219L537.3 113L502.3 206Z" fill="#15384f" stroke="#15384f"></path><path d="M502.3 206L398.7 109L409.7 211Z" fill="#15384f" stroke="#15384f"></path><path d="M511.3 251L616 219L502.3 206Z" fill="#081a28" stroke="#081a28"></path><path d="M429.7 380L511.3 371L446.7 251Z" fill="#19435d" stroke="#19435d"></path><path d="M446.7 251L511.3 371L511.3 251Z" fill="#0c2435" stroke="#0c2435"></path><path d="M511.3 251L628 249L616 219Z" fill="#277297" stroke="#277297"></path><path d="M537.3 113L398.7 109L502.3 206Z" fill="#297ea6" stroke="#297ea6"></path><path d="M511.3 371L628 249L511.3 251Z" fill="#081a28" stroke="#081a28"></path><path d="M318 385L429.7 380L446.7 251Z" fill="#297ea6" stroke="#297ea6"></path><path d="M398.7 109L314 171L409.7 211Z" fill="#00101c" stroke="#00101c"></path><path d="M409.7 211L286 256L446.7 251Z" fill="#246688" stroke="#246688"></path><path d="M314 171L286 256L409.7 211Z" fill="#1d4e6b" stroke="#1d4e6b"></path><path d="M318 385L412.7 418L429.7 380Z" fill="#15384f" stroke="#15384f"></path><path d="M429.7 380L412.7 418L511.3 371Z" fill="#246688" stroke="#246688"></path><path d="M398.7 0L359 56L398.7 109Z" fill="#0c2435" stroke="#0c2435"></path><path d="M398.7 109L359 56L314 171Z" fill="#205a7a" stroke="#205a7a"></path><path d="M549.3 476L656 356L511.3 371Z" fill="#205a7a" stroke="#205a7a"></path><path d="M511.3 371L656 356L628 249Z" fill="#246688" stroke="#246688"></path><path d="M286 256L318 385L446.7 251Z" fill="#112e42" stroke="#112e42"></path><path d="M733.7 197L616 219L628 249Z" fill="#00101c" stroke="#00101c"></path><path d="M733.7 197L673 110L616 219Z" fill="#205a7a" stroke="#205a7a"></path><path d="M616 219L673 110L537.3 113Z" fill="#297ea6" stroke="#297ea6"></path><path d="M537.3 113L398.7 0L398.7 109Z" fill="#277297" stroke="#277297"></path><path d="M636 0L552.3 0L537.3 113Z" fill="#0c2435" stroke="#0c2435"></path><path d="M552.3 0L398.7 0L537.3 113Z" fill="#205a7a" stroke="#205a7a"></path><path d="M538.3 540L549.3 476L391.7 540Z" fill="#277297" stroke="#277297"></path><path d="M412.7 418L549.3 476L511.3 371Z" fill="#246688" stroke="#246688"></path><path d="M724.7 321L733.7 197L628 249Z" fill="#0c2435" stroke="#0c2435"></path><path d="M721.7 419L724.7 321L656 356Z" fill="#081a28" stroke="#081a28"></path><path d="M656 356L724.7 321L628 249Z" fill="#1d4e6b" stroke="#1d4e6b"></path><path d="M188.3 301L238.3 364L286 256Z" fill="#081a28" stroke="#081a28"></path><path d="M286 256L238.3 364L318 385Z" fill="#0c2435" stroke="#0c2435"></path><path d="M318 385L350 489L412.7 418Z" fill="#19435d" stroke="#19435d"></path><path d="M205.3 179L286 256L314 171Z" fill="#205a7a" stroke="#205a7a"></path><path d="M307 0L314 171L359 56Z" fill="#205a7a" stroke="#205a7a"></path><path d="M173.3 78L205.3 179L314 171Z" fill="#297ea6" stroke="#297ea6"></path><path d="M716.7 0L636 0L673 110Z" fill="#081a28" stroke="#081a28"></path><path d="M673 110L636 0L537.3 113Z" fill="#081a28" stroke="#081a28"></path><path d="M237.3 427L350 489L318 385Z" fill="#19435d" stroke="#19435d"></path><path d="M724.7 321L764.7 286L733.7 197Z" fill="#277297" stroke="#277297"></path><path d="M819.3 323L764.7 286L724.7 321Z" fill="#205a7a" stroke="#205a7a"></path><path d="M398.7 0L307 0L359 56Z" fill="#297ea6" stroke="#297ea6"></path><path d="M733.7 197L743.7 102L673 110Z" fill="#246688" stroke="#246688"></path><path d="M820.3 93L743.7 102L733.7 197Z" fill="#15384f" stroke="#15384f"></path><path d="M205.3 179L188.3 301L286 256Z" fill="#277297" stroke="#277297"></path><path d="M612 540L653 484L549.3 476Z" fill="#297ea6" stroke="#297ea6"></path><path d="M549.3 476L653 484L656 356Z" fill="#15384f" stroke="#15384f"></path><path d="M653 484L721.7 419L656 356Z" fill="#1d4e6b" stroke="#1d4e6b"></path><path d="M67.7 345L237.3 427L238.3 364Z" fill="#15384f" stroke="#15384f"></path><path d="M238.3 364L237.3 427L318 385Z" fill="#246688" stroke="#246688"></path><path d="M391.7 540L549.3 476L412.7 418Z" fill="#297ea6" stroke="#297ea6"></path><path d="M355 540L391.7 540L350 489Z" fill="#297ea6" stroke="#297ea6"></path><path d="M350 489L391.7 540L412.7 418Z" fill="#112e42" stroke="#112e42"></path><path d="M200.3 540L355 540L350 489Z" fill="#19435d" stroke="#19435d"></path><path d="M743.7 102L716.7 0L673 110Z" fill="#205a7a" stroke="#205a7a"></path><path d="M538.3 540L612 540L549.3 476Z" fill="#00101c" stroke="#00101c"></path><path d="M749.7 540L820.3 440L721.7 419Z" fill="#246688" stroke="#246688"></path><path d="M307 0L173.3 78L314 171Z" fill="#1d4e6b" stroke="#1d4e6b"></path><path d="M94.7 198L114.7 296L188.3 301Z" fill="#00101c" stroke="#00101c"></path><path d="M721.7 419L819.3 323L724.7 321Z" fill="#15384f" stroke="#15384f"></path><path d="M764.7 286L834.3 285L733.7 197Z" fill="#112e42" stroke="#112e42"></path><path d="M743.7 102L832.3 0L716.7 0Z" fill="#277297" stroke="#277297"></path><path d="M820.3 440L819.3 323L721.7 419Z" fill="#246688" stroke="#246688"></path><path d="M307 0L207.3 0L173.3 78Z" fill="#277297" stroke="#277297"></path><path d="M819.3 323L834.3 285L764.7 286Z" fill="#246688" stroke="#246688"></path><path d="M139.7 0L132.7 120L173.3 78Z" fill="#297ea6" stroke="#297ea6"></path><path d="M173.3 78L132.7 120L205.3 179Z" fill="#00101c" stroke="#00101c"></path><path d="M869.3 164L820.3 93L733.7 197Z" fill="#205a7a" stroke="#205a7a"></path><path d="M188.3 301L67.7 345L238.3 364Z" fill="#205a7a" stroke="#205a7a"></path><path d="M94.7 198L188.3 301L205.3 179Z" fill="#1d4e6b" stroke="#1d4e6b"></path><path d="M132.7 120L94.7 198L205.3 179Z" fill="#081a28" stroke="#081a28"></path><path d="M834.3 285L869.3 164L733.7 197Z" fill="#277297" stroke="#277297"></path><path d="M749.7 540L721.7 419L653 484Z" fill="#277297" stroke="#277297"></path><path d="M819.3 323L960 294L834.3 285Z" fill="#19435d" stroke="#19435d"></path><path d="M834.3 285L960 294L869.3 164Z" fill="#19435d" stroke="#19435d"></path><path d="M612 540L749.7 540L653 484Z" fill="#112e42" stroke="#112e42"></path><path d="M207.3 0L139.7 0L173.3 78Z" fill="#081a28" stroke="#081a28"></path><path d="M0 198L0 251L94.7 198Z" fill="#19435d" stroke="#19435d"></path><path d="M237.3 427L200.3 540L350 489Z" fill="#15384f" stroke="#15384f"></path><path d="M97.7 489L200.3 540L237.3 427Z" fill="#15384f" stroke="#15384f"></path><path d="M960 107L832.3 0L820.3 93Z" fill="#277297" stroke="#277297"></path><path d="M820.3 93L832.3 0L743.7 102Z" fill="#0c2435" stroke="#0c2435"></path><path d="M0 251L67.7 345L114.7 296Z" fill="#112e42" stroke="#112e42"></path><path d="M114.7 296L67.7 345L188.3 301Z" fill="#081a28" stroke="#081a28"></path><path d="M67.7 345L97.7 489L237.3 427Z" fill="#205a7a" stroke="#205a7a"></path><path d="M749.7 540L827.3 540L820.3 440Z" fill="#297ea6" stroke="#297ea6"></path><path d="M960 391L960 294L819.3 323Z" fill="#1d4e6b" stroke="#1d4e6b"></path><path d="M97.7 489L128.7 540L200.3 540Z" fill="#297ea6" stroke="#297ea6"></path><path d="M67.7 345L0 412L97.7 489Z" fill="#081a28" stroke="#081a28"></path><path d="M94.7 198L0 251L114.7 296Z" fill="#0c2435" stroke="#0c2435"></path><path d="M0 198L94.7 198L0 95Z" fill="#1d4e6b" stroke="#1d4e6b"></path><path d="M0 95L94.7 198L132.7 120Z" fill="#1d4e6b" stroke="#1d4e6b"></path><path d="M960 391L819.3 323L820.3 440Z" fill="#15384f" stroke="#15384f"></path><path d="M869.3 164L960 107L820.3 93Z" fill="#205a7a" stroke="#205a7a"></path><path d="M960 294L960 169L869.3 164Z" fill="#277297" stroke="#277297"></path><path d="M960 169L960 107L869.3 164Z" fill="#205a7a" stroke="#205a7a"></path><path d="M139.7 0L0 95L132.7 120Z" fill="#112e42" stroke="#112e42"></path><path d="M0 251L0 394L67.7 345Z" fill="#081a28" stroke="#081a28"></path><path d="M97.7 489L0 540L128.7 540Z" fill="#081a28" stroke="#081a28"></path><path d="M960 446L960 391L820.3 440Z" fill="#277297" stroke="#277297"></path><path d="M0 394L0 412L67.7 345Z" fill="#112e42" stroke="#112e42"></path><path d="M827.3 540L960 446L820.3 440Z" fill="#0c2435" stroke="#0c2435"></path><path d="M139.7 0L0 0L0 95Z" fill="#277297" stroke="#277297"></path><path d="M960 107L960 0L832.3 0Z" fill="#277297" stroke="#277297"></path><path d="M0 412L0 540L97.7 489Z" fill="#205a7a" stroke="#205a7a"></path><path d="M827.3 540L960 540L960 446Z" fill="#19435d" stroke="#19435d"></path></g></svg>