<svg xmlns="http://www.w3.org/2000/svg" xmlns:xlink="http://www.w3.org/1999/xlink" id="visual" version="1.1" viewBox="0 0 960 101.64"><path d="M0 97L22.8 98.5C45.7 100 91.3 103 137 99.3C182.7 95.7 228.3 85.3 274 79C319.7 72.7 365.3 70.3 411.2 70.5C457 70.7 503 73.3 548.8 80C594.7 86.7 640.3 97.3 686 100.5C731.7 103.7 777.3 99.3 823 97.8C868.7 96.3 914.3 97.7 937.2 98.3L960 99L960 0L937.2 0C914.3 0 868.7 0 823 0C777.3 0 731.7 0 686 0C640.3 0 594.7 0 548.8 0C503 0 457 0 411.2 0C365.3 0 319.7 0 274 0C228.3 0 182.7 0 137 0C91.3 0 45.7 0 22.8 0L0 0Z" fill="#55423d" stroke-linecap="round" stroke-linejoin="miter"/></svg>